<?xml version="1.0" encoding="utf-8"?>
<!-- Generator: Adobe Illustrator 23.1.0, SVG Export Plug-In . SVG Version: 6.00 Build 0)  -->
<!DOCTYPE svg PUBLIC "-//W3C//DTD SVG 1.1//EN" "http://www.w3.org/Graphics/SVG/1.1/DTD/svg11.dtd" [
	<!ENTITY ns_extend "http://ns.adobe.com/Extensibility/1.0/">
	<!ENTITY ns_ai "http://ns.adobe.com/AdobeIllustrator/10.0/">
	<!ENTITY ns_graphs "http://ns.adobe.com/Graphs/1.0/">
	<!ENTITY ns_vars "http://ns.adobe.com/Variables/1.0/">
	<!ENTITY ns_imrep "http://ns.adobe.com/ImageReplacement/1.0/">
	<!ENTITY ns_sfw "http://ns.adobe.com/SaveForWeb/1.0/">
	<!ENTITY ns_custom "http://ns.adobe.com/GenericCustomNamespace/1.0/">
	<!ENTITY ns_adobe_xpath "http://ns.adobe.com/XPath/1.0/">
]>
<svg version="1.1" id="Layer_3" xmlns:x="&ns_extend;" xmlns:i="&ns_ai;" xmlns:graph="&ns_graphs;"
	 xmlns="http://www.w3.org/2000/svg" xmlns:xlink="http://www.w3.org/1999/xlink" x="0px" y="0px" viewBox="0 0 124.762 26.919"
	 style="enable-background:new 0 0 124.762 26.919;" xml:space="preserve">
<style type="text/css">
	.Drop_x0020_Shadow{fill:none;}
	.Round_x0020_Corners_x0020_2_x0020_pt{fill:#FFFFFF;stroke:#1D1D1B;stroke-miterlimit:10;}
	.Live_x0020_Reflect_x0020_X{fill:none;}
	.Bevel_x0020_Soft{fill:url(#SVGID_1_);}
	.Dusk{fill:#FFFFFF;}
	.Foliage_GS{fill:#FFDD00;}
	.Pompadour_GS{fill-rule:evenodd;clip-rule:evenodd;fill:#51AEE2;}
	.st0{fill:#6D5B4F;}
	.st1{fill:#40312C;}
</style>
<metadata>
	<sfw  xmlns="&ns_sfw;">
		<slices></slices>
		<sliceSourceBounds  bottomLeftOrigin="true" height="26.919" width="124.762" x="360.059" y="-116.109"></sliceSourceBounds>
		<optimizationSettings>
			<targetSettings  fileFormat="PNG24Format" targetSettingsID="0">
				<PNG24Format  filtered="false" interlaced="false" matteColor="#FFFFFF" noMatteColor="false" transparency="true">
					</PNG24Format>
			</targetSettings>
		</optimizationSettings>
	</sfw>
</metadata>
<linearGradient id="SVGID_1_" gradientUnits="userSpaceOnUse" x1="-360.0586" y1="-89.1898" x2="-359.3515" y2="-88.4827">
	<stop  offset="0" style="stop-color:#E6E6EB"/>
	<stop  offset="0.1754" style="stop-color:#E2E2E7"/>
	<stop  offset="0.3552" style="stop-color:#D6D6DB"/>
	<stop  offset="0.5371" style="stop-color:#C2C3C6"/>
	<stop  offset="0.7204" style="stop-color:#A5A7A9"/>
	<stop  offset="0.9031" style="stop-color:#818485"/>
	<stop  offset="1" style="stop-color:#6B6E6E"/>
</linearGradient>
<g>
	<path class="st0" d="M15.388,23.182h0.619v3.112h1.869v0.625h-2.488V23.182z"/>
	<path class="st0" d="M21.262,23.182h0.619v3.737h-0.619V23.182z"/>
	<path class="st0" d="M25.269,23.177l2.488,2.24v-2.24h0.624v3.736v-0.005v0.011l-2.493-2.24v2.234h-0.619V23.177z"/>
	<path class="st0" d="M33.637,23.182c0.258,0,0.5,0.049,0.727,0.146c0.227,0.098,0.426,0.231,0.598,0.404l-0.447,0.441
		c-0.24-0.244-0.532-0.366-0.877-0.366c-0.342,0-0.636,0.122-0.884,0.366c-0.24,0.244-0.36,0.537-0.36,0.878s0.12,0.635,0.36,0.883
		c0.248,0.24,0.542,0.36,0.884,0.36c0.187,0,0.359-0.036,0.52-0.11c0.159-0.073,0.299-0.177,0.417-0.31v-0.512h-0.937v-0.619h1.562
		v1.336c-0.087,0.126-0.187,0.24-0.299,0.345c-0.113,0.104-0.236,0.192-0.369,0.267c-0.133,0.073-0.274,0.13-0.426,0.169
		c-0.15,0.04-0.307,0.06-0.468,0.06c-0.518,0-0.957-0.183-1.319-0.549c-0.366-0.363-0.55-0.803-0.55-1.319
		c0-0.514,0.184-0.953,0.55-1.319C32.68,23.365,33.119,23.182,33.637,23.182z"/>
	<path class="st0" d="M41.072,23.182v0.625h-1.869v0.937h1.869v0.619h-1.869v0.932h1.869v0.625h-2.488v-3.737H41.072z"/>
	<path class="st0" d="M46.855,26.919l-0.722-1.244h-1.056v1.244h-0.619v-3.737h1.869c0.341,0,0.633,0.122,0.877,0.366
		s0.366,0.537,0.366,0.878c0,0.259-0.073,0.494-0.221,0.705c-0.144,0.209-0.326,0.357-0.549,0.447l0.77,1.341H46.855z
		 M46.328,23.807h-1.25v1.238l1.25,0.006c0.168,0,0.313-0.062,0.436-0.184s0.184-0.269,0.184-0.441c0-0.169-0.062-0.314-0.184-0.437
		C46.642,23.868,46.496,23.807,46.328,23.807z"/>
	<path class="st0" d="M50.958,23.182h0.619v3.737h-0.619V23.182z"/>
	<path class="st0" d="M57.452,23.182v0.625h-1.869v0.937h1.869v0.619h-1.869v0.932h1.869v0.625h-2.488v-3.737H57.452z"/>
	<path class="st0" d="M64.785,23.182h1.244c0.255,0,0.495,0.05,0.722,0.148s0.425,0.233,0.595,0.404
		c0.171,0.17,0.306,0.368,0.404,0.595c0.099,0.226,0.147,0.467,0.147,0.722s-0.049,0.495-0.147,0.722
		c-0.099,0.226-0.232,0.424-0.401,0.595c-0.169,0.17-0.367,0.305-0.595,0.403c-0.229,0.1-0.47,0.148-0.725,0.148h-1.244V23.182z
		 M66.029,26.294c0.173,0,0.334-0.032,0.484-0.097c0.151-0.064,0.283-0.154,0.396-0.27c0.112-0.114,0.201-0.247,0.267-0.398
		c0.064-0.15,0.097-0.31,0.097-0.479s-0.032-0.329-0.097-0.479c-0.065-0.15-0.155-0.283-0.27-0.398
		c-0.115-0.115-0.248-0.205-0.398-0.27c-0.151-0.064-0.311-0.097-0.479-0.097h-0.625v2.487H66.029z"/>
	<path class="st0" d="M73.772,23.182v0.625h-1.869v0.937h1.869v0.619h-1.869v0.932h1.869v0.625h-2.488v-3.737H73.772z"/>
	<path class="st0" d="M83.595,23.182v0.625h-1.869v1.238h1.869v0.63h-1.869v1.244h-0.619v-3.737H83.595z"/>
	<path class="st0" d="M89.469,23.182v0.625H87.6v0.937h1.869v0.619H87.6v0.932h1.869v0.625H86.98v-3.737H89.469z"/>
	<path class="st0" d="M93.475,24.685v2.234h-0.619v-3.737l1.869,1.869l1.874-1.869v3.737h-0.631v-2.234l-1.243,1.249L93.475,24.685z
		"/>
	<path class="st0" d="M100.604,24.685v2.234h-0.619v-3.737l1.869,1.869l1.874-1.869v3.737h-0.631v-2.234l-1.243,1.249
		L100.604,24.685z"/>
	<path class="st0" d="M109.602,23.182v0.625h-1.869v0.937h1.869v0.619h-1.869v0.932h1.869v0.625h-2.488v-3.737H109.602z"/>
</g>
<g>
	<path class="st1" d="M2.304,18.458H4.32c1.272,0,1.392-0.12,1.392-1.272V1.848H4.128c-2.544,0-3.432,0.456-3.552,2.76L0.48,5.593
		L0,5.569L0.408,0l0.288,0.024l-0.12,1.392h12.289l-0.12-1.368l0.288-0.024l0.384,5.544l-0.48,0.024l-0.072-0.984
		c-0.192-2.304-1.032-2.76-3.552-2.76H7.776v15.337c0,1.152,0.12,1.272,1.392,1.272h1.968v0.216H2.304V18.458z"/>
	<path class="st1" d="M21.984,13.729v-1.32c0-2.304-1.368-2.568-2.856-2.568h-1.056v7.128c0,0.528-0.264,0.96-0.576,1.248v0.024
		h5.256c2.544,0,3.744-0.936,3.937-3.24l0.168-1.92h0.408l-0.456,6.504l-0.216-0.024l0.072-1.104h-0.024
		c-0.192,0.168-0.552,0.216-0.984,0.216H13.704v-0.216h0.912c1.272,0,1.416-0.12,1.416-1.272V2.904c0-1.152-0.144-1.272-1.416-1.272
		h-0.912V1.417h10.537c0.408,0,0.792,0.048,0.96,0.216h0.048l-0.096-1.104l0.24-0.024l0.48,6.504h-0.48l-0.096-1.68
		c-0.168-2.592-1.536-3.48-4.081-3.48h-3.72v0.024c0.312,0.288,0.576,0.72,0.576,1.248v6.289h1.056c1.488,0,2.856-0.24,2.856-2.544
		v-0.84h0.24v7.705H21.984z"/>
	<path class="st1" d="M27.671,18.674v-0.216h0.672c1.272,0,1.44-0.12,1.44-1.272V2.904c0-1.152-0.168-1.272-1.44-1.272h-0.672V1.417
		h4.032l7.249,12.097c0.288,0.456,0.456,0.792,0.456,0.888h0.168c-0.024-0.264-0.024-0.6-0.024-1.008V3.145
		c0-1.152-0.432-1.512-1.704-1.512h-1.176V1.417h5.424v0.216h-0.408c-1.272,0-1.704,0.36-1.704,1.512V19.13h-0.192
		c0-0.312-0.408-0.912-0.744-1.488L30.864,4.128c-0.264-0.456-0.528-0.84-0.528-0.936h-0.144c0.048,0.264,0.048,0.624,0.048,1.032
		v12.961c0,1.152,0.144,1.272,1.416,1.272h0.696v0.216H27.671z"/>
	<path class="st1" d="M42.432,18.458h0.912c1.272,0,1.416-0.12,1.416-1.272V3.121c0-1.152-0.144-1.488-1.416-1.488h-0.912V1.417
		h7.441c6.192,0,10.321,3.456,10.321,8.617c0,5.184-4.128,8.641-10.321,8.641h-7.441V18.458z M49.152,18.242
		c5.712,0,8.761-2.88,8.761-8.208c0-5.329-3.048-8.185-8.761-8.185h-2.784v0.024C46.68,2.161,46.8,2.448,46.8,3V17.09
		c0,0.552-0.12,0.84-0.432,1.128v0.024H49.152z"/>
	<path class="st1" d="M59.52,18.482h0.937c1.248,0,1.392-0.12,1.392-1.272V2.928c0-1.152-0.144-1.272-1.392-1.272H59.52V1.44h6.889
		c4.225,0,7.033,2.136,7.033,5.329c0,2.928-2.424,4.92-5.592,5.184l-0.552,0.024v0.144c1.128,0.096,1.968,0.744,2.832,1.632
		c4.128,4.104,8.449,5.353,11.857,5.353c4.296,0,7.561-1.992,8.473-2.712l0.144,0.168c-2.353,1.848-5.977,3.24-9.913,3.24
		c-3.984,0-8.544-1.416-12.193-5.232c-1.296-1.344-2.16-2.496-3.24-2.496h-0.312v-0.408h1.2c2.952,0,4.944-1.968,4.944-4.92
		c0-2.928-1.992-4.896-4.944-4.896h-2.736v0.024c0.312,0.288,0.432,0.696,0.432,1.248v14.065c0,1.152,0.168,1.272,1.44,1.272h1.536
		v0.216h-7.345L59.52,18.482z"/>
	<path class="st1" d="M93.706,4.584c0-1.896,1.224-2.928,3.36-2.928c1.152,0,2.02,0.376,2.656,0.944
		c0.124-0.201,0.256-0.398,0.393-0.59c-0.763-0.434-1.734-0.786-3.05-0.786c-3.12,0-5.208,1.561-5.208,3.889
		c0,5.328,8.689,5.328,8.689,9.721c0,2.352-1.56,3.625-3.96,3.625c-2.52,0-4.632-1.824-4.776-4.657l-0.048-0.984l-0.456-0.024
		l0.336,6.552h0.24l-0.072-1.512c-0.024-0.288-0.024-0.792-0.12-1.032l0.12-0.024c0.072,0.216,0.456,0.672,0.648,0.792
		c1.344,0.864,2.544,1.296,4.177,1.296c3.648,0,5.88-1.56,5.88-4.44C102.515,8.785,93.706,8.833,93.706,4.584z"/>
	<path class="st1" d="M101.075,6.433l0.48-0.024l-0.178-3.494c-0.027-0.013-0.051-0.029-0.078-0.041
		c-0.233,0.334-0.446,0.681-0.633,1.043c0.204,0.477,0.327,0.989,0.36,1.507L101.075,6.433z"/>
	<path class="st1" d="M101.842,4.584c0-1.896,1.224-2.928,3.36-2.928c2.617,0,3.84,1.872,3.96,3.769l0.048,1.008l0.48-0.024
		l-0.288-5.665h-0.264l0.071,1.272c0.024,0.336,0.049,0.6,0.097,0.768l-0.168,0.048c-0.048-0.072-0.24-0.432-0.433-0.552
		c-0.815-0.552-1.92-1.056-3.504-1.056c-3.12,0-5.208,1.561-5.208,3.889c0,5.328,8.689,5.328,8.689,9.721
		c0,2.352-1.561,3.625-3.961,3.625c-0.866,0-1.666-0.241-2.366-0.646c-0.12,0.162-0.243,0.322-0.372,0.476
		c0.852,0.368,1.728,0.578,2.786,0.578c3.648,0,5.88-1.56,5.88-4.44C110.651,8.785,101.842,8.833,101.842,4.584z"/>
	<path class="st1" d="M119.482,13.729v-1.32c0-2.304-1.368-2.568-2.856-2.568h-1.056v7.128c0,0.528-0.264,0.96-0.576,1.248v0.024
		h5.257c2.544,0,3.744-0.936,3.937-3.24l0.168-1.92h0.407l-0.456,6.504l-0.216-0.024l0.072-1.104h-0.024
		c-0.191,0.168-0.552,0.216-0.983,0.216h-11.953v-0.216h0.912c1.271,0,1.416-0.12,1.416-1.272V2.904
		c0-1.152-0.145-1.272-1.416-1.272h-0.912V1.417h10.537c0.407,0,0.792,0.048,0.96,0.216h0.048l-0.096-1.104l0.239-0.024l0.48,6.504
		h-0.48l-0.096-1.68c-0.168-2.592-1.536-3.48-4.08-3.48h-3.721v0.024c0.313,0.288,0.576,0.72,0.576,1.248v6.289h1.056
		c1.488,0,2.856-0.24,2.856-2.544v-0.84h0.24v7.705H119.482z"/>
	<path class="st1" d="M77.532,7.753v0.288c0,4.729,1.968,7.272,5.688,7.272c3.144,0,5.544-1.32,6.697-3.528l0.408,0.24
		c-1.248,2.328-3.768,3.744-7.081,3.744c-4.776,0-7.945-2.928-7.945-7.321c0-4.32,3.289-7.2,8.161-7.2
		c4.128,0,6.864,2.28,6.864,5.712v0.12c0,0.384-0.336,0.696-0.816,0.696H77.556L77.532,7.753z M87.9,7.153
		c0.144,0,0.216-0.072,0.216-0.216c0-3.168-1.92-5.281-4.8-5.281c-3.504,0-5.521,1.968-5.761,5.665L87.9,7.153z"/>
</g>
</svg>
