<svg xmlns="http://www.w3.org/2000/svg" version="1.1" xmlns:xlink="http://www.w3.org/1999/xlink" xmlns:svgjs="http://svgjs.com/svgjs" width="512" height="512" x="0" y="0" viewBox="0 0 64 64" style="enable-background:new 0 0 512 512" xml:space="preserve" class=""><g transform="matrix(1.1399999999999992,0,0,1.1399999999999992,-4.4795902442931705,-4.480000534057602)"><path d="M55.39 54 47.5 23a4.47 4.47 0 0 0-4.29-3.44h-.32C42.55 10.91 37.8 4 32 4s-10.55 6.91-10.89 15.59h-.32A4.47 4.47 0 0 0 16.5 23L8.61 54a4.89 4.89 0 0 0 .87 4.25A4.52 4.52 0 0 0 13.06 60h37.88a4.52 4.52 0 0 0 3.58-1.78 4.89 4.89 0 0 0 .87-4.22zM32 6c4.71 0 8.57 6 8.89 13.59H23.11C23.43 12 27.29 6 32 6zm20.94 51a2.54 2.54 0 0 1-2 1H13.06a2.54 2.54 0 0 1-2-1 2.92 2.92 0 0 1-.52-2.53l7.89-30.94a2.48 2.48 0 0 1 2.36-1.93h22.42a2.48 2.48 0 0 1 2.36 1.93l7.89 30.94a2.92 2.92 0 0 1-.52 2.53z" fill="#40312c" data-original="#000000" opacity="1" class=""></path></g></svg>