<svg width="100" height="30" viewBox="0 0 100 30" fill="none" xmlns="http://www.w3.org/2000/svg">
<path d="M5.43018 5.64201C5.43018 5.64201 5.80353 5.25291 6.77425 4.24123C0.8753 4.24123 4.90749 4.20232 0.0165934 4.24123C0.0165934 9.92217 -0.0207417 5.40855 0.0165934 11.284C0.80063 10.5058 1.36066 9.88326 1.36066 9.88326C1.36066 9.88326 4.04878 12.6848 7.33427 16.1089C8.52899 14.5136 9.72372 12.9961 10.8811 11.3619C7.85696 8.1712 5.43018 5.64201 5.43018 5.64201Z" fill="black"/>
<path d="M24.3217 22.5292C23.4257 23.4242 22.9777 23.93 22.9777 23.93C22.9777 23.93 20.5882 21.4397 17.6014 18.3269C16.2574 19.4164 14.8386 20.3891 12.8599 21.8288C16.1454 25.2529 18.9455 28.1323 18.9455 28.1323C18.9455 28.1323 18.5348 28.5603 17.6014 29.5331C19.9909 29.5331 20.5136 29.5331 20.5136 29.5331C19.8415 29.5331 20.5136 29.5331 20.5136 29.5331C20.9616 29.5331 22.0443 29.5331 24.3591 29.5331C24.3217 21.2841 24.3217 30.467 24.3217 22.5292Z" fill="black"/>
<path d="M3.26598 29.572C3.48999 29.572 4.16202 29.572 3.26598 29.572V29.572ZM5.43141 28.1323C5.43141 28.1323 9.16492 25.2141 13.2718 21.9845C12.1891 20.7782 8.6049 17.1207 7.3355 15.7977C4.19935 20.0779 1.36189 23.93 1.36189 23.93C0.540514 23.074 0.9512 23.502 0.0178223 22.5292C0.0178223 27.8989 0.0178223 25.9144 0.0178223 25.7199C0.0178223 25.8366 0.0178223 26.6927 0.0178223 29.572C1.80991 29.572 2.78062 29.572 3.26598 29.572C3.04197 29.572 3.34065 29.572 6.77548 29.572C5.91677 28.6771 5.43141 28.1323 5.43141 28.1323Z" fill="black"/>
<path d="M13.5319 2.10117C14.9506 3.73541 15.6226 4.51362 15.6226 4.51362C15.6226 4.51362 13.5319 7.54864 10.8438 11.2451C12.4492 12.8794 16.444 17.1595 17.6014 18.2879C21.1856 15.4864 24.3591 13.3463 24.3591 13.3463C24.3591 13.3463 24.8817 13.8521 26.3752 15.4475C28.2792 0.661479 26.4872 14.5914 28.3912 0C14.2786 1.98444 27.1592 0.233463 13.5319 2.10117Z" fill="black"/>
<path d="M33.2075 11.8677C33.9542 12.3346 34.9996 12.7237 36.1197 12.7237C37.7998 12.7237 38.7705 11.7899 38.7705 10.4669C38.7705 9.22178 38.0984 8.5214 36.381 7.85992C34.3276 7.08171 33.0582 5.99221 33.0582 4.12451C33.0582 2.06225 34.7009 0.544739 37.1651 0.544739C38.4718 0.544739 39.4052 0.856023 39.9652 1.20622L39.4798 2.56809C39.0691 2.33462 38.2104 1.94552 37.0904 1.94552C35.373 1.94552 34.7009 3.03501 34.7009 3.92995C34.7009 5.17509 35.485 5.75875 37.2024 6.45914C39.3305 7.31517 40.4132 8.40466 40.4132 10.3502C40.4132 12.3735 38.9571 14.1634 35.9703 14.1634C34.7383 14.1634 33.4316 13.7743 32.7595 13.3074L33.2075 11.8677Z" fill="black"/>
<path d="M44.2961 0.739319V6.26461H50.419V0.739319H52.0618V13.93H50.419V7.74321H44.2961V13.93H42.6533V0.739319H44.2961Z" fill="black"/>
<path d="M65.7265 7.19847C65.7265 11.751 63.0757 14.1245 59.8649 14.1245C56.5421 14.1245 54.1899 11.4397 54.1899 7.43193C54.1899 3.2296 56.6914 0.505859 60.0516 0.505859C63.4864 0.54477 65.7265 3.30742 65.7265 7.19847ZM55.9074 7.43193C55.9074 10.2335 57.3634 12.7627 59.9395 12.7627C62.5157 12.7627 64.0091 10.2724 64.0091 7.27629C64.0091 4.66929 62.7023 1.90664 59.9769 1.90664C57.2514 1.94555 55.9074 4.51364 55.9074 7.43193Z" fill="black"/>
<path d="M67.8545 0.894932C68.6385 0.73929 69.6839 0.622559 70.9906 0.622559C72.596 0.622559 73.7908 1.01166 74.5375 1.71205C75.2468 2.33462 75.6575 3.30738 75.6575 4.4747C75.6575 5.68093 75.3215 6.61478 74.6868 7.27626C73.8281 8.24902 72.4094 8.71595 70.804 8.71595C70.3186 8.71595 69.8706 8.67704 69.4972 8.59922V13.891H67.8545V0.894932ZM69.4599 7.27626C69.8333 7.39299 70.2813 7.4319 70.804 7.4319C72.7827 7.4319 73.9774 6.42023 73.9774 4.63034C73.9774 2.87937 72.7827 2.06225 70.9906 2.06225C70.2813 2.06225 69.7212 2.14007 69.4599 2.21789V7.27626Z" fill="black"/>
<path d="M32.9088 17.2373H39.8531V18.5603H34.4396V22.4903H38.9944V23.8521H34.4396V28.3657H40.0398V29.7276H32.9088V17.2373Z" fill="black"/>
<path d="M44.7067 23.2685L41.4585 17.2373H43.1386L44.7813 20.428C44.9307 20.7393 45.08 21.0117 45.2294 21.284C45.3787 21.5564 45.5281 21.8677 45.7147 22.2568H45.7894C45.9761 21.9066 46.1254 21.5564 46.2374 21.284C46.3494 21.0117 46.4988 20.7393 46.6481 20.428L48.2535 17.2373H49.8589L46.5734 23.3463L50.0829 29.7276H48.4029L46.6481 26.3424C46.4988 26.0311 46.3121 25.7198 46.1628 25.4085C46.0134 25.0973 45.8267 24.7471 45.6401 24.358H45.5654C45.3787 24.7471 45.2294 25.0973 45.08 25.4085C44.9307 25.7198 44.7814 26.0311 44.632 26.3424L42.8773 29.7276H41.2719L44.7067 23.2685Z" fill="black"/>
<path d="M51.9869 17.2373H55.6831C56.3551 17.2373 56.9525 17.3152 57.5125 17.4319C58.0726 17.5486 58.5206 17.7821 58.9313 18.0545C59.3046 18.3268 59.6033 18.7159 59.8273 19.1829C60.0513 19.6498 60.1633 20.2334 60.1633 20.9338C60.1633 21.5953 60.0513 22.179 59.8273 22.6459C59.6033 23.1128 59.3046 23.5408 58.9313 23.8521C58.5579 24.1634 58.0726 24.3969 57.5125 24.5525C56.9525 24.7082 56.3551 24.786 55.7205 24.786H53.555V29.7276H52.0243L51.9869 17.2373ZM55.4964 23.5019C56.5418 23.5019 57.3259 23.3074 57.8486 22.8794C58.3712 22.4513 58.5953 21.8288 58.5953 20.9338C58.5953 20.0389 58.3339 19.4163 57.8112 19.0661C57.2885 18.7159 56.5045 18.5603 55.4964 18.5603H53.5177V23.5408H55.4964V23.5019V23.5019Z" fill="black"/>
<path d="M69.161 29.7276L66.2489 24.4358H64.0835V29.7276H62.5527V17.2373H66.3236C66.9209 17.2373 67.5183 17.3152 68.0037 17.4319C68.5263 17.5486 68.9744 17.7432 69.3477 18.0155C69.7211 18.2879 70.0198 18.6381 70.2064 19.105C70.4304 19.5331 70.5051 20.0778 70.5051 20.7393C70.5051 21.712 70.2438 22.4903 69.7584 23.0739C69.2731 23.6576 68.601 24.0467 67.7796 24.2801L70.8411 29.7276H69.161V29.7276ZM64.0835 23.1517H66.0996C67.0329 23.1517 67.7796 22.9572 68.265 22.5681C68.7504 22.179 69.0117 21.5564 69.0117 20.7393C69.0117 19.9222 68.7504 19.3385 68.265 18.9883C67.7796 18.677 67.0329 18.4825 66.0996 18.4825H64.0835V23.1517Z" fill="black"/>
<path d="M73.2307 17.2373H80.175V18.5603H74.7615V22.4903H79.3163V23.8521H74.7615V28.3657H80.3617V29.7276H73.2307V17.2373Z" fill="black"/>
<path d="M82.9377 27.0039C83.3484 27.4708 83.8711 27.8599 84.4685 28.1323C85.0658 28.4047 85.6632 28.5603 86.2605 28.5603C87.0446 28.5603 87.6793 28.3658 88.1273 28.0156C88.5753 27.6265 88.7993 27.1595 88.7993 26.537C88.7993 26.2257 88.762 25.9533 88.65 25.7198C88.538 25.4864 88.3886 25.2918 88.2393 25.1362C88.0526 24.9805 87.8659 24.8249 87.6046 24.7082C87.3433 24.5914 87.0819 24.4358 86.8206 24.3191L85.1032 23.5408C84.8045 23.4241 84.5431 23.2685 84.2444 23.0739C83.9458 22.8794 83.6844 22.6848 83.4604 22.4124C83.2364 22.1401 83.0497 21.8677 82.9004 21.5175C82.751 21.1673 82.6764 20.7782 82.6764 20.3113C82.6764 19.8443 82.7884 19.4163 82.9751 18.9883C83.1617 18.5992 83.4231 18.249 83.7591 17.9377C84.0951 17.6264 84.5058 17.393 84.9538 17.2373C85.4018 17.0817 85.9245 17.0039 86.4845 17.0039C87.1939 17.0039 87.8659 17.1595 88.5006 17.4319C89.098 17.7043 89.6207 18.0934 90.0687 18.5603L89.2473 19.572C88.874 19.2218 88.4633 18.9105 88.0153 18.7159C87.5673 18.5214 87.0819 18.4047 86.4845 18.4047C85.8125 18.4047 85.2525 18.5603 84.8791 18.8716C84.4685 19.1829 84.2818 19.6498 84.2818 20.2335C84.2818 20.5447 84.3565 20.7782 84.4685 21.0117C84.5805 21.2062 84.7298 21.4008 84.9538 21.5564C85.1778 21.7121 85.3645 21.8677 85.5885 21.9844C85.8125 22.1012 86.0739 22.2179 86.2979 22.3346L88.0153 23.1128C88.3513 23.2685 88.6873 23.4241 88.986 23.6187C89.2847 23.8132 89.546 24.0467 89.77 24.3191C89.994 24.5914 90.1807 24.9027 90.2927 25.214C90.4047 25.5642 90.4794 25.9533 90.4794 26.4202C90.4794 26.9261 90.3674 27.393 90.1807 27.821C89.994 28.249 89.7327 28.6381 89.3593 28.9494C88.986 29.2607 88.5753 29.5331 88.09 29.7276C87.6046 29.9222 87.0072 30 86.3725 30C85.5138 30 84.7298 29.8444 84.0204 29.4942C83.3111 29.1829 82.6764 28.716 82.1537 28.1323L82.9377 27.0039Z" fill="black"/>
<path d="M92.4582 27.0039C92.8689 27.4708 93.3916 27.8599 93.989 28.1323C94.5863 28.4047 95.1837 28.5603 95.781 28.5603C96.5651 28.5603 97.1998 28.3658 97.6478 28.0156C98.0958 27.6265 98.3198 27.1595 98.3198 26.537C98.3198 26.2257 98.2825 25.9533 98.1705 25.7198C98.0585 25.4864 97.9091 25.2918 97.7598 25.1362C97.5731 24.9805 97.3864 24.8249 97.1251 24.7082C96.8638 24.5914 96.6024 24.4358 96.3411 24.3191L94.6237 23.5408C94.325 23.4241 94.0636 23.2685 93.765 23.0739C93.4663 22.8794 93.2049 22.6848 92.9809 22.4124C92.7569 22.1401 92.5702 21.8677 92.4209 21.5175C92.2716 21.1673 92.1969 20.7782 92.1969 20.3113C92.1969 19.8443 92.3089 19.4163 92.4956 18.9883C92.6822 18.5992 92.9436 18.249 93.2796 17.9377C93.6156 17.6264 94.0263 17.393 94.4743 17.2373C94.9223 17.0817 95.445 17.0039 96.0051 17.0039C96.7144 17.0039 97.3864 17.1595 98.0211 17.4319C98.6185 17.7043 99.1412 18.0934 99.5892 18.5603L98.7678 19.572C98.3945 19.2218 97.9838 18.9105 97.5358 18.7159C97.0878 18.5214 96.6024 18.4047 96.0051 18.4047C95.333 18.4047 94.773 18.5603 94.3997 18.8716C93.989 19.1829 93.8023 19.6498 93.8023 20.2335C93.8023 20.5447 93.877 20.7782 93.989 21.0117C94.101 21.2062 94.2503 21.4008 94.4743 21.5564C94.661 21.7121 94.885 21.8677 95.109 21.9844C95.333 22.1012 95.5944 22.2179 95.8184 22.3346L97.5358 23.1128C97.8718 23.2685 98.2078 23.4241 98.5065 23.6187C98.8052 23.8132 99.0665 24.0467 99.2905 24.3191C99.5145 24.5914 99.7012 24.9027 99.8132 25.214C99.9252 25.5642 99.9999 25.9533 99.9999 26.4202C99.9999 26.9261 99.8879 27.393 99.7012 27.821C99.5145 28.249 99.2532 28.6381 98.8799 28.9494C98.5065 29.2607 98.0958 29.5331 97.6105 29.7276C97.1251 29.9222 96.5277 30 95.8931 30C95.0343 30 94.2503 29.8444 93.5409 29.4942C92.8316 29.1829 92.1969 28.716 91.6742 28.1323L92.4582 27.0039Z" fill="black"/>
</svg>
